<svg xmlns="http://www.w3.org/2000/svg" width="1200" height="900" viewBox="0 0 1200 900">
  <defs>
    <linearGradient id="bg" x1="0" y1="0" x2="1" y2="1">
      <stop offset="0%" stop-color="#0a0a0f" />
      <stop offset="60%" stop-color="#121218" />
      <stop offset="100%" stop-color="#1a1a24" />
    </linearGradient>
    <linearGradient id="accent" x1="0" y1="0" x2="1" y2="1">
      <stop offset="0%" stop-color="#ffc857" />
      <stop offset="100%" stop-color="#a68b4c" />
    </linearGradient>
  </defs>
  <rect width="1200" height="900" fill="url(#bg)" />
  <rect x="90" y="110" width="1020" height="680" rx="24" fill="#0f1016" stroke="#ffc857" stroke-width="3" />
  <rect x="130" y="160" width="420" height="260" rx="18" fill="#151620" stroke="#2b2b3a" stroke-width="2" />
  <circle cx="330" cy="290" r="70" fill="url(#accent)" />
  <g fill="#1b1c28" stroke="#ffc857" stroke-width="2">
    <rect x="600" y="170" width="420" height="12" />
    <rect x="600" y="210" width="320" height="12" />
    <rect x="600" y="250" width="360" height="12" />
    <rect x="600" y="290" width="240" height="12" />
    <rect x="600" y="330" width="400" height="12" />
  </g>
  <rect x="130" y="470" width="940" height="240" rx="18" fill="#10111a" stroke="#2b2b3a" stroke-width="2" />
  <g fill="#1b1c28" stroke="#ffc857" stroke-width="2">
    <rect x="170" y="520" width="180" height="140" />
    <rect x="380" y="520" width="180" height="140" />
    <rect x="590" y="520" width="180" height="140" />
    <rect x="800" y="520" width="180" height="140" />
  </g>
  <text x="140" y="86" font-family="Space Grotesk, Arial, sans-serif" font-size="42" fill="#ffc857" letter-spacing="4">PIXEL WEATHER</text>
</svg>
